<?xml version="1.0" encoding="utf-8"?>
<!-- Svg Vector Icons : http://www.onlinewebfonts.com/icon -->
<!DOCTYPE svg PUBLIC "-//W3C//DTD SVG 1.1//EN" "http://www.w3.org/Graphics/SVG/1.1/DTD/svg11.dtd">
<svg version="1.1" xmlns="http://www.w3.org/2000/svg" xmlns:xlink="http://www.w3.org/1999/xlink" x="0px" y="0px" viewBox="0 0 1000 1000" enable-background="new 0 0 1000 1000" xml:space="preserve">
<metadata> Svg Vector Icons : http://www.onlinewebfonts.com/icon </metadata>
<g><path d="M491.3,923.6c-45.7,0.4-86.8,9.5-128,18.2c-39.3,8.2-78.4,16.8-119,16.7c-86.2-0.3-135.1-77.5-108.8-154.2c15.7-45.9,44.1-83.3,80.2-114.8c30.8-26.9,62.5-52.8,87.5-85.5c18.6-24.3,36.2-49.4,54.2-74.2c17.6-24.3,35.4-48.6,59-67.6c41.4-33.4,87.9-43.6,139-27.6c25.9,8.1,45.7,25.7,60.6,47.7c14.9,21.8,27.7,45,41.3,67.8c34,57.1,74.8,108.8,123.6,153.9c33.5,31,60.1,66,70.2,111.5c6,27.2,4.1,53.9-6.3,79.9c-16.6,41.9-47.1,63.6-92.3,64.6c-34.4,0.8-67.7-6.3-101.3-12.1c-46.7-8.1-93.5-15.6-140.4-23.1C503.4,923.5,495.6,923.8,491.3,923.6z M800,198.9c-1.7,53.4-17.2,104-54,146.7c-13.2,15.4-28.9,27.8-47.3,36.6c-43.2,20.5-90,10.8-121.3-25.4c-26.6-30.8-38-67.5-39.7-107.4c-2.6-61.7,13.9-117.5,55.3-164.3c22-24.9,49-42.3,82.9-44.7c43.7-3.1,74.9,18.4,97.3,54.1C792.8,125.6,799.6,160.4,800,198.9z M463.6,244.4c-0.7,38.9-7.8,73-27.1,103.5c-36.3,57.4-101.4,70.1-156.1,29.9c-41.7-30.6-64.1-73.6-74.5-123.2c-9.2-43.8-7.2-87,11.2-128.5c14.6-32.8,36.8-58.6,72.4-68.8c41.8-12.1,77.4,2.3,107.9,30.4c39.1,35.9,58.1,82.1,64.5,134.1C462.9,230.4,463.2,239,463.6,244.4z M990,460.7c-3,55.4-24.7,109.2-74.5,149.2c-24.3,19.5-52.2,30.2-83.8,23.2c-37.9-8.4-57.3-36.1-67.3-71.2c-20.4-71.8,14.9-165.1,77.2-206.1c21.5-14.1,44.8-22,70.6-18c30.5,4.8,50.8,23.6,64,50.7C986.2,409,989.8,430.9,990,460.7z M241.4,519.2c-0.2,23.9-4.2,47-15.5,68.3c-22.6,42.6-66.9,58.7-111.3,40C77.7,612,52.1,584,34.3,549C10,501.1,1.2,451.1,20.5,399.3c12.6-33.9,36.4-56.1,73.8-59.5c26.3-2.4,49.6,7.1,70.2,22.7c44.6,33.8,67.7,80.1,75.4,134.8c0.7,5,1.1,10.2,1.4,15.2C241.6,514.7,241.4,517,241.4,519.2z"/></g>
</svg>